<svg width="80" height="80" viewBox="0 0 80 80" fill="none" xmlns="http://www.w3.org/2000/svg">
<path d="M48.9405 57.0905C49.2383 56.7864 49.4731 56.4265 49.6317 56.0315C49.7902 55.6364 49.8693 55.214 49.8644 54.7884C49.8595 54.3628 49.7707 53.9423 49.6031 53.5511C49.4355 53.1598 49.1923 52.8055 48.8876 52.5083L36.1329 40.0446L48.5966 27.29C49.1972 26.6753 49.5291 25.8473 49.5192 24.9879C49.5092 24.1286 49.1584 23.3084 48.5437 22.7078C47.9291 22.1071 47.101 21.7753 46.2417 21.7852C45.3823 21.7951 44.5621 22.146 43.9615 22.7606L29.2171 37.8493C28.9193 38.1534 28.6844 38.5133 28.5259 38.9083C28.3674 39.3033 28.2883 39.7257 28.2932 40.1513C28.2981 40.577 28.3869 40.9974 28.5545 41.3887C28.7221 41.7799 28.9653 42.1343 29.27 42.4315L44.3586 57.1759C45.6078 58.3965 47.6877 58.3725 48.9405 57.0905Z" fill="white"/>
</svg>
